<mxfile host="Electron" agent="Mozilla/5.0 (Windows NT 10.0; Win64; x64) AppleWebKit/537.36 (KHTML, like Gecko) draw.io/26.2.2 Chrome/134.0.6998.178 Electron/35.1.2 Safari/537.36" version="26.2.2">
  <diagram id="prtHgNgQTEPvFCAcTncT" name="Page-1">
    <mxGraphModel dx="1428" dy="841" grid="1" gridSize="5" guides="1" tooltips="1" connect="1" arrows="1" fold="1" page="1" pageScale="1" pageWidth="1169" pageHeight="827" math="0" shadow="0">
      <root>
        <mxCell id="0" />
        <mxCell id="1" parent="0" />
        <mxCell id="eOclJAeKw57KATX1tWCV-1" value="" style="edgeStyle=orthogonalEdgeStyle;rounded=0;orthogonalLoop=1;jettySize=auto;html=1;fillColor=#dae8fc;strokeColor=default;strokeWidth=2;" parent="1" source="FdMM1S6p_5ng1iaDet82-10" target="fp_1hmJSc1ItHtHm08vu-7" edge="1">
          <mxGeometry relative="1" as="geometry" />
        </mxCell>
        <mxCell id="eOclJAeKw57KATX1tWCV-5" style="edgeStyle=orthogonalEdgeStyle;rounded=0;orthogonalLoop=1;jettySize=auto;html=1;entryX=0.5;entryY=0;entryDx=0;entryDy=0;fillColor=#dae8fc;strokeColor=default;strokeWidth=2;" parent="1" source="fp_1hmJSc1ItHtHm08vu-7" target="fp_1hmJSc1ItHtHm08vu-9" edge="1">
          <mxGeometry relative="1" as="geometry">
            <Array as="points">
              <mxPoint x="600" y="380" />
              <mxPoint x="400" y="380" />
            </Array>
          </mxGeometry>
        </mxCell>
        <mxCell id="eOclJAeKw57KATX1tWCV-9" style="edgeStyle=orthogonalEdgeStyle;rounded=0;orthogonalLoop=1;jettySize=auto;html=1;entryX=0.5;entryY=0;entryDx=0;entryDy=0;fillColor=#dae8fc;strokeColor=default;strokeWidth=2;" parent="1" source="fp_1hmJSc1ItHtHm08vu-7" target="hcl_MWZGXUsUnFYniPxa-3" edge="1">
          <mxGeometry relative="1" as="geometry">
            <Array as="points">
              <mxPoint x="600" y="380" />
              <mxPoint x="800" y="380" />
            </Array>
          </mxGeometry>
        </mxCell>
        <mxCell id="eOclJAeKw57KATX1tWCV-7" style="edgeStyle=orthogonalEdgeStyle;rounded=0;orthogonalLoop=1;jettySize=auto;html=1;entryX=0.5;entryY=0;entryDx=0;entryDy=0;fillColor=#dae8fc;strokeColor=default;strokeWidth=2;" parent="1" source="fp_1hmJSc1ItHtHm08vu-9" target="fp_1hmJSc1ItHtHm08vu-10" edge="1">
          <mxGeometry relative="1" as="geometry" />
        </mxCell>
        <mxCell id="eOclJAeKw57KATX1tWCV-8" style="edgeStyle=orthogonalEdgeStyle;rounded=0;orthogonalLoop=1;jettySize=auto;html=1;entryX=0.5;entryY=0;entryDx=0;entryDy=0;fillColor=#dae8fc;strokeColor=default;strokeWidth=2;" parent="1" source="hcl_MWZGXUsUnFYniPxa-3" target="hcl_MWZGXUsUnFYniPxa-6" edge="1">
          <mxGeometry relative="1" as="geometry" />
        </mxCell>
        <mxCell id="FdMM1S6p_5ng1iaDet82-10" value="&lt;font face=&quot;Courier New&quot; style=&quot;font-size: 18px&quot;&gt;&lt;b&gt;Process Design&lt;br&gt;Kit (PDK)&lt;/b&gt;&lt;br&gt;&lt;/font&gt;" style="shape=hexagon;perimeter=hexagonPerimeter2;whiteSpace=wrap;html=1;fixedSize=1;fontSize=20;sketch=0;curveFitting=1;jiggle=2;align=center;fillColor=#e1d5e7;strokeColor=#9673a6;" parent="1" vertex="1">
          <mxGeometry x="480" y="160" width="240" height="60" as="geometry" />
        </mxCell>
        <mxCell id="fp_1hmJSc1ItHtHm08vu-7" value="&lt;b style=&quot;font-family: &amp;#34;courier new&amp;#34; ; font-size: 18px&quot;&gt;Techsweep Testbenches&lt;br&gt;in Xschem&lt;/b&gt;" style="rounded=1;whiteSpace=wrap;html=1;fontSize=20;fillColor=#dae8fc;strokeColor=#6c8ebf;strokeWidth=3;shadow=0;sketch=0;curveFitting=1;jiggle=2;fontStyle=1;align=center;" parent="1" vertex="1">
          <mxGeometry x="480" y="260" width="240" height="60" as="geometry" />
        </mxCell>
        <mxCell id="fp_1hmJSc1ItHtHm08vu-9" value="&lt;font style=&quot;font-size: 14px;&quot;&gt;techsweep_sg13g2_txt_to_mat&lt;/font&gt;" style="rounded=1;whiteSpace=wrap;html=1;fontSize=20;fillColor=#dae8fc;strokeColor=#6c8ebf;strokeWidth=3;shadow=0;sketch=0;curveFitting=1;jiggle=2;fontStyle=1;align=center;verticalAlign=top;" parent="1" vertex="1">
          <mxGeometry x="280" y="420" width="240" height="40" as="geometry" />
        </mxCell>
        <mxCell id="fp_1hmJSc1ItHtHm08vu-10" value="&lt;b style=&quot;font-family: &amp;#34;courier new&amp;#34;&quot;&gt;Sizing Scripts&lt;br&gt;&lt;font style=&quot;font-size: 14px&quot;&gt;(Jupyter NBs, pygmid)&lt;/font&gt;&lt;br&gt;&lt;/b&gt;" style="rounded=1;whiteSpace=wrap;html=1;fontSize=20;fillColor=#dae8fc;strokeColor=#6c8ebf;strokeWidth=3;shadow=0;sketch=0;curveFitting=1;jiggle=2;fontStyle=1;align=center;" parent="1" vertex="1">
          <mxGeometry x="280" y="520" width="240" height="60" as="geometry" />
        </mxCell>
        <mxCell id="fp_1hmJSc1ItHtHm08vu-11" value="&lt;b&gt;&lt;font face=&quot;Courier New&quot; style=&quot;font-size: 16px&quot;&gt;.txt&lt;/font&gt;&lt;/b&gt;" style="text;html=1;strokeColor=#6c8ebf;fillColor=#dae8fc;align=center;verticalAlign=middle;whiteSpace=wrap;rounded=0;" parent="1" vertex="1">
          <mxGeometry x="535" y="335" width="45" height="30" as="geometry" />
        </mxCell>
        <mxCell id="fp_1hmJSc1ItHtHm08vu-12" value="&lt;b&gt;&lt;font face=&quot;Courier New&quot; style=&quot;font-size: 16px&quot;&gt;.mat&lt;/font&gt;&lt;/b&gt;" style="text;html=1;strokeColor=#6c8ebf;fillColor=#dae8fc;align=center;verticalAlign=middle;whiteSpace=wrap;rounded=0;" parent="1" vertex="1">
          <mxGeometry x="335" y="475" width="45" height="30" as="geometry" />
        </mxCell>
        <mxCell id="hcl_MWZGXUsUnFYniPxa-3" value="&lt;font style=&quot;font-size: 13px;&quot;&gt;techsweep_sg13g2_saturation_plots&lt;/font&gt;" style="rounded=1;whiteSpace=wrap;html=1;fontSize=20;fillColor=#dae8fc;strokeColor=#6c8ebf;strokeWidth=3;shadow=0;sketch=0;curveFitting=1;jiggle=2;fontStyle=1;align=center;verticalAlign=top;spacingTop=-1;" parent="1" vertex="1">
          <mxGeometry x="680" y="420" width="240" height="40" as="geometry" />
        </mxCell>
        <mxCell id="hcl_MWZGXUsUnFYniPxa-6" value="&lt;font&gt;&lt;font face=&quot;courier new&quot;&gt;Characterization&lt;br&gt;Plots&lt;/font&gt;&lt;/font&gt;" style="rounded=1;whiteSpace=wrap;html=1;fontSize=20;fillColor=#dae8fc;strokeColor=#6c8ebf;strokeWidth=3;shadow=0;sketch=0;curveFitting=1;jiggle=2;fontStyle=1;align=center;" parent="1" vertex="1">
          <mxGeometry x="680" y="520" width="240" height="60" as="geometry" />
        </mxCell>
        <mxCell id="hcl_MWZGXUsUnFYniPxa-7" value="&lt;b&gt;&lt;font face=&quot;Courier New&quot; style=&quot;font-size: 16px&quot;&gt;.pdf&lt;/font&gt;&lt;/b&gt;" style="text;html=1;strokeColor=#6c8ebf;fillColor=#dae8fc;align=center;verticalAlign=middle;whiteSpace=wrap;rounded=0;" parent="1" vertex="1">
          <mxGeometry x="820" y="475" width="45" height="30" as="geometry" />
        </mxCell>
      </root>
    </mxGraphModel>
  </diagram>
</mxfile>
